/vscmnt/brussel_pixiu_data/_data_brussel/112/vsc11236/PredSimResults/SUBJ06opt3D/expIG/worker_10.mot
version=1
nRows=4
nColumns=50
inDegrees=yes
endheader
                time	         pelvis_tilt	         pelvis_list	     pelvis_rotation	           pelvis_tx	           pelvis_ty	           pelvis_tz	       hip_flexion_r	     hip_adduction_r	      hip_rotation_r	        knee_angle_r	       ankle_angle_r	         mtp_angle_r	       hip_flexion_l	     hip_adduction_l	      hip_rotation_l	        knee_angle_l	       ankle_angle_l	         mtp_angle_l	    lumbar_extension	      lumbar_bending	     lumbar_rotation	 ercspn_r/activation	 intobl_r/activation	 extobl_r/activation	    abd_r/activation	    add_r/activation	hamstrings_r/activation	bifemsh_r/activation	glut_max_r/activation	iliopsoas_r/activation	rect_fem_r/activation	  vasti_r/activation	gastroc_r/activation	 soleus_r/activation	tib_ant_r/activation	 ercspn_l/activation	 intobl_l/activation	 extobl_l/activation	    abd_l/activation	    add_l/activation	hamstrings_l/activation	bifemsh_l/activation	glut_max_l/activation	iliopsoas_l/activation	rect_fem_l/activation	  vasti_l/activation	gastroc_l/activation	 soleus_l/activation	tib_ant_l/activation	
          0.00000000	         -7.46676055	         -1.80732190	          6.97892777	          0.00000000	          0.91757589	         -0.00957566	         35.18435996	         -0.83994292	         -9.19327049	         -7.86464158	          2.01219090	          0.27103776	        -12.52246569	         -1.60697202	         -2.57383380	        -10.84046691	          5.52382778	         38.73470377	         -7.51534280	          1.55637143	         -9.73015886	          0.19919985	          0.13095715	          0.00999999	          0.00999999	          0.44326936	          0.18750233	          0.19824736	          0.07658360	          0.14893084	          0.00999999	          0.00999999	          0.01886663	          0.01379653	          0.63294678	          0.22515245	          0.00999999	          0.00999999	          0.05539360	          0.00999999	          0.02426005	          0.27341760	          0.01903444	          0.80953945	          0.00999999	          0.00999999	          0.25390676	          0.37552232	          0.02557113	
          0.01047521	         -7.46268451	         -1.87197243	          7.03234661	          0.01898283	          0.91564687	         -0.00922175	         35.27305625	         -0.69878424	         -8.92051645	        -10.09274847	          1.64299566	          0.22896702	        -12.73658942	         -1.87706985	         -2.94134155	        -12.41059028	          4.14447700	         40.98992016	         -7.20562635	          1.94373899	        -10.14104774	          0.16959142	          0.11149209	          0.00999999	          0.05527555	          0.37738322	          0.17053129	          0.16878050	          0.18345217	          0.12679424	          0.00999999	          0.00999999	          0.01606235	          0.01174586	          0.72171947	          0.23456637	          0.00999999	          0.00999999	          0.04716007	          0.02059616	          0.04788173	          0.24951358	          0.01620522	          0.77036325	          0.00999999	          0.00999999	          0.21616687	          0.32250544	          0.02177032	
          0.02095042	         -7.43760026	         -1.97203418	          7.04996894	          0.03817681	          0.91394774	         -0.00874298	         35.20666640	         -0.53735987	         -8.65556445	        -12.09727880	          1.21391000	          0.21034069	        -12.71922144	         -2.20978866	         -3.32905287	        -14.42416717	          2.62056290	         43.18269050	         -6.89022369	          2.35941321	        -10.49117641	          0.17677078	          0.09492026	          0.00999999	          0.13269020	          0.37989977	          0.14518406	          0.14369351	          0.26124409	          0.10794794	          0.00999999	          0.00999999	          0.01367489	          0.00999999	          0.80688638	          0.23648959	          0.00999999	          0.00999999	          0.04015034	          0.01753481	          0.04076474	          0.22486867	          0.01379653	          0.74153877	          0.00999999	          0.00999999	          0.18403651	          0.27456926	          0.01853445	
          0.03142563	         -7.39290968	         -2.07427352	          7.03026481	          0.05732211	          0.91258875	         -0.00811527	         35.11640077	         -0.35957426	         -8.47580729	        -14.06420211	          0.71713580	          0.17387867	        -12.40138866	         -2.57614810	         -3.72692126	        -16.96885680	          0.93580556	         45.16588365	         -6.60380148	          2.76426814	        -10.77901857	          0.19309570	          0.08081162	          0.00999999	          0.20181575	          0.41333816	          0.12919885	          0.12233536	          0.34144604	          0.09190291	          0.00999999	          0.04324856	          0.01164230	          0.00999999	          0.85061604	          0.27844665	          0.00999999	          0.00999999	          0.03418253	          0.01492849	          0.03470560	          0.21999818	          0.01174586	          0.63131881	          0.00999999	          0.00999999	          0.15668191	          0.23375816	          0.01577954	
